#!OML:ASF F:\VICON\USERDATA\INSTALL\rory3\rory3.ASF
:FULLY-SPECIFIED
:DEGREES
965
root 7.36083 17.485 5.25538 -10.9548 106.703 -19.9698
lowerback 2.4624 -0.264296 -5.36419
upperback 1.82069 -0.427438 1.21503
thorax 0.545355 -0.261299 4.27354
lowerneck -10.5221 0.575591 -7.41717
upperneck 41.8027 7.04716 -1.48642
head 16.8841 2.49558 2.12173
rclavicle -4.83047e-014 1.82882e-014
rhumerus -35.7394 -3.28166 -76.8627
rradius 43.0988
rwrist 20.8543
rhand -23.0058 3.78741
rfingers 7.12502
rthumb 3.43748 -26.1646
lclavicle -4.83047e-014 1.82882e-014
lhumerus -31.3164 6.91962 82.1342
lradius 31.2093
lwrist -5.12546
lhand -13.5799 24.0935
lfingers 7.12502
lthumb 12.5342 53.6975
rfemur -39.7969 -13.9429 29.1183
rtibia 27.5115
rfoot -17.6554 -28.6827
rtoes 17.1722
lfemur -6.57916 6.46388 -32.5473
ltibia 22.1712
lfoot -18.9054 -5.78753
ltoes -9.28891
966
root 7.43817 17.4748 5.20503 -11.1803 106.526 -20.2792
lowerback 2.43983 -0.503591 -5.32252
upperback 1.77453 -0.746298 1.40783
thorax 0.54897 -0.421026 4.45578
lowerneck -10.6252 0.527885 -7.81777
upperneck 41.7595 7.02443 -1.43268
head 16.8749 2.41869 2.21055
rclavicle 7.95139e-015 7.95139e-015
rhumerus -35.5915 -3.45568 -76.4835
rradius 42.5673
rwrist 20.6781
rhand -22.6634 4.22487
rfingers 7.12502
rthumb 3.76819 -25.7216
lclavicle 7.95139e-015 7.95139e-015
lhumerus -31.4316 7.59437 82.233
lradius 31.0244
lwrist -5.61453
lhand -13.6848 24.0148
lfingers 7.12502
lthumb 12.433 53.625
rfemur -39.6956 -13.7212 29.0952
rtibia 27.8012
rfoot -18.0895 -28.4269
rtoes 19.6908
lfemur -6.27113 6.30338 -32.7213
ltibia 22.1057
lfoot -18.9421 -5.29639
ltoes -9.41322
967
root 7.52009 17.465 5.15499 -11.08 106.336 -20.2224
lowerback 2.3616 -0.55943 -5.06824
upperback 1.72682 -0.814125 1.43926
thorax 0.547444 -0.452134 4.34491
lowerneck -10.564 0.196281 -7.7349
upperneck 41.8891 6.41582 -1.28583
head 16.9454 2.19208 2.16508
rclavicle -3.18055e-014 -8.74653e-015
rhumerus -35.7163 -4.23261 -76.1295
rradius 42.108
rwrist 20.6515
rhand -22.3233 4.56344
rfingers 7.12502
rthumb 4.09656 -25.3769
lclavicle -3.18055e-014 -8.74653e-015
lhumerus -31.3975 7.65224 82.2698
lradius 30.7339
lwrist -6.35947
lhand -13.7804 23.9406
lfingers 7.12502
lthumb 12.3408 53.5564
rfemur -39.4574 -13.2445 28.9731
rtibia 28.1121
rfoot -18.803 -28.1852
rtoes 20.3066
lfemur -6.01975 6.20677 -32.769
ltibia 22.1777
lfoot -18.9956 -4.85045
ltoes -10.1652
968
root 7.60093 17.4517 5.10231 -10.8447 106.143 -20.0668
lowerback 2.27863 -0.631302 -4.77997
upperback 1.66206 -0.903278 1.49472
thorax 0.532695 -0.493169 4.24005
lowerneck -10.586 -0.159176 -7.71249
upperneck 42.1869 5.80781 -1.07059
head 17.1304 1.96092 2.16969
rclavicle 2.66371e-014 9.54166e-015
rhumerus -35.8423 -4.97003 -75.7313
rradius 41.6297
rwrist 20.6117
rhand -22.063 5.03989
rfingers 7.12502
rthumb 4.3479 -24.8955
lclavicle 2.66371e-014 9.54166e-015
lhumerus -31.4593 7.54327 82.3992
lradius 30.5704
lwrist -6.82562
lhand -13.5705 24.0294
lfingers 7.12502
lthumb 12.5432 53.6329
rfemur -39.2358 -12.6779 28.8028
rtibia 28.4466
rfoot -19.2451 -27.8457
rtoes 21.5414
lfemur -5.86065 6.2726 -32.7674
ltibia 22.3314
lfoot -19.0871 -4.74779
ltoes -10.6657
969
root 7.68328 17.4367 5.05377 -11.5617 106.054 -20.874
lowerback 2.29138 -0.866771 -4.95207
upperback 1.58273 -1.22302 1.63557
thorax 0.486202 -0.652945 4.48921
lowerneck -10.5897 -0.25293 -7.95477
upperneck 42.2246 5.66683 -0.980904
head 17.1503 1.86718 2.22875
rclavicle -1.72943e-014 2.78299e-014
rhumerus -35.7963 -5.01529 -75.3982
rradius 41.0654
rwrist 20.2661
rhand -21.9793 5.46473
rfingers 7.12502
rthumb 4.42872 -24.469
lclavicle -1.72943e-014 2.78299e-014
lhumerus -31.5912 7.87213 82.5464
lradius 30.3416
lwrist -7.10303
lhand -13.582 23.922
lfingers 7.12502
lthumb 12.5321 53.5262
rfemur -38.9386 -11.8636 28.1203
rtibia 28.7838
rfoot -19.848 -27.278
rtoes 25.3535
lfemur -5.70346 6.28938 -33.0323
ltibia 22.5229
lfoot -19.0245 -4.79675
ltoes -10.3654
970
root 7.7665 17.4296 5.00616 -12.2457 106.036 -21.6085
lowerback 2.38925 -1.0719 -5.08674
upperback 1.4835 -1.50634 1.70139
thorax 0.367308 -0.791091 4.64108
lowerneck -10.4193 -0.288693 -7.93576
upperneck 41.9145 5.51918 -1.07667
head 16.9408 1.79844 2.13941
rclavicle 2.18663e-014 -1.27222e-014
rhumerus -35.9194 -5.4107 -75.1475
rradius 40.5878
rwrist 20.1045
rhand -21.7806 5.73435
rfingers 7.12502
rthumb 4.62063 -24.1953
lclavicle 2.18663e-014 -1.27222e-014
lhumerus -31.7036 7.73096 82.7272
lradius 30.1529
lwrist -6.98779
lhand -13.2854 23.9055
lfingers 7.12502
lthumb 12.8181 53.492
rfemur -38.7149 -11.3636 27.5376
rtibia 29.1231
rfoot -20.0495 -26.7601
rtoes 27.7537
lfemur -5.5068 6.15155 -33.3012
ltibia 22.7146
lfoot -18.9048 -4.73511
ltoes -10.9944
971
root 7.85232 17.4359 4.95361 -11.433 105.877 -20.8808
lowerback 2.30484 -1.18993 -4.67806
upperback 1.40066 -1.65383 1.80429
thorax 0.337016 -0.860108 4.51776
lowerneck -10.2431 -0.450757 -7.71513
upperneck 41.6582 5.15308 -1.21305
head 16.7754 1.66513 1.96523
rclavicle -2.08724e-014 2.8625e-014
rhumerus -36.1611 -6.05547 -74.825
rradius 40.2512
rwrist 19.8411
rhand -21.6048 5.66725
rfingers 7.12502
rthumb 4.79036 -24.2586
lclavicle -2.08724e-014 2.8625e-014
lhumerus -31.722 7.74233 82.8437
lradius 29.8924
lwrist -7.41296
lhand -12.8641 23.8659
lfingers 7.12502
lthumb 13.2242 53.4265
rfemur -38.644 -11.0728 27.5258
rtibia 29.4173
rfoot -20.1877 -26.7226
rtoes 28.6546
lfemur -5.39665 5.88738 -33.1281
ltibia 22.9011
lfoot -18.7043 -4.54384
ltoes -11.4389
972
root 7.93682 17.4473 4.89528 -10.2771 105.74 -19.7579
lowerback 2.28353 -1.3876 -4.19355
upperback 1.32135 -1.90698 2.02925
thorax 0.286879 -0.981293 4.4812
lowerneck -10.066 -0.578063 -7.78605
upperneck 41.4409 4.89068 -1.24332
head 16.6205 1.54199 1.90906
rclavicle -4.37326e-015 -1.82882e-014
rhumerus -36.2646 -6.68892 -74.3256
rradius 39.8215
rwrist 20.0444
rhand -21.4813 5.66244
rfingers 7.12502
rthumb 4.90963 -24.2607
lclavicle -4.37326e-015 -1.82882e-014
lhumerus -31.7429 7.97105 83.0907
lradius 29.5967
lwrist -7.58863
lhand -13.2121 24.085
lfingers 7.12502
lthumb 12.8887 53.667
rfemur -38.6225 -11.2193 27.7796
rtibia 29.6488
rfoot -20.0944 -27.0678
rtoes 28.9903
lfemur -5.28081 5.58284 -32.866
ltibia 23.1628
lfoot -18.4872 -4.29197
ltoes -12.3413
973
root 8.02443 17.4571 4.84013 -9.54031 105.558 -18.9962
lowerback 2.35592 -1.50581 -3.86184
upperback 1.26038 -2.05859 2.24414
thorax 0.195929 -1.05184 4.522
lowerneck -9.99099 -0.774494 -7.91653
upperneck 41.3456 4.53496 -1.17304
head 16.5583 1.37979 1.90022
rclavicle -9.93923e-016 -2.54444e-014
rhumerus -36.3104 -7.43388 -73.7853
rradius 39.2968
rwrist 19.9465
rhand -21.2856 5.68917
rfingers 7.12502
rthumb 5.09863 -24.2295
lclavicle -9.93923e-016 -2.54444e-014
lhumerus -31.7235 8.11123 83.3637
lradius 29.2691
lwrist -7.7536
lhand -13.3999 24.0815
lfingers 7.12502
lthumb 12.7077 53.6748
rfemur -38.466 -11.3071 27.9307
rtibia 29.8518
rfoot -20.3051 -26.8986
rtoes 29.5074
lfemur -5.12709 5.14092 -32.692
ltibia 23.5071
lfoot -18.1698 -3.93446
ltoes -12.3724
974
root 8.10741 17.4696 4.78339 -9.03046 105.282 -18.6146
lowerback 2.38145 -1.53315 -3.43365
upperback 1.08403 -2.0881 2.28546
thorax -0.0113043 -1.05681 4.32707
lowerneck -9.7369 -1.01393 -7.74375
upperneck 41.2736 4.06819 -1.19628
head 16.4747 1.21302 1.77761
rclavicle -4.8901e-014 -8.74653e-015
rhumerus -36.5808 -8.18402 -73.3686
rradius 38.8149
rwrist 19.461
rhand -21.3329 5.6819
rfingers 7.12502
rthumb 5.05294 -24.2379
lclavicle -4.8901e-014 -8.74653e-015
lhumerus -31.7965 7.58468 83.5757
lradius 28.979
lwrist -7.55569
lhand -13.3443 23.8509
lfingers 7.12502
lthumb 12.7613 53.4409
rfemur -38.4688 -11.4752 28.1146
rtibia 30.0629
rfoot -20.2473 -26.2001
rtoes 30.3764
lfemur -5.18703 4.78553 -32.6279
ltibia 23.9666
lfoot -17.6409 -3.75107
ltoes -10.8346
